<?xml version="1.0" standalone="no"?>
<!DOCTYPE svg PUBLIC "-//W3C//DTD SVG 1.1//EN" "http://www.w3.org/Graphics/SVG/1.1/DTD/svg11.dtd" >
<svg xmlns="http://www.w3.org/2000/svg">
<metadata></metadata>
<defs>
<font id="helvetica-compressedregular" horiz-adv-x="950" >
<font-face units-per-em="2048" ascent="1638" descent="-410" />
<missing-glyph horiz-adv-x="475" />
<glyph horiz-adv-x="0" />
<glyph unicode="&#xd;" horiz-adv-x="0" />
<glyph unicode=" "  horiz-adv-x="475" />
<glyph unicode="&#x09;" horiz-adv-x="475" />
<glyph unicode="&#xa0;" horiz-adv-x="475" />
<glyph unicode="!" horiz-adv-x="530" d="M106 0v344h318v-344h-318zM106 428v1030h318v-1030h-318z" />
<glyph unicode="&#x22;" horiz-adv-x="682" d="M31 903v555h245v-555h-245zM406 903v555h245v-555h-245z" />
<glyph unicode="#" d="M43 410l8 198h164l29 242h-148l6 199h164l47 409h174l-47 -409h158l47 409h174l-47 -409h133l-6 -199h-149l-29 -242h133l-6 -198h-150l-47 -410h-174l47 410h-159l-46 -410h-174l48 410h-150zM389 608h160l26 242h-157z" />
<glyph unicode="$" d="M45 301v266h340v-252q0 -61 22 -85.5t68 -24.5q47 0 69.5 25t22.5 85q0 107 -62 178.5t-192.5 176t-199 204t-68.5 248.5q0 169 90 257t256 108v100h154v-100q164 -13 263 -89.5t99 -232.5v-229h-340v207q0 62 -22.5 86t-69.5 24q-46 0 -68 -23.5t-22 -86.5 q0 -70 97.5 -160.5t190 -168.5t163.5 -188.5t71 -260.5q0 -140 -57.5 -226.5t-137 -122t-167.5 -45.5v-123h-154v123q-100 6 -178 45.5t-123 112t-45 172.5z" />
<glyph unicode="%" horiz-adv-x="1290" d="M35 897v301q0 260 264 260t264 -260v-301q0 -260 -264 -260t-264 260zM250 854q0 -70 49 -70t49 70v387q0 70 -49 70t-49 -70v-387zM289 -29l559 1516h151l-557 -1516h-153zM727 260v301q0 260 264 260t264 -260v-301q0 -260 -264 -260t-264 260zM942 217q0 -70 49 -70 t49 70v387q0 70 -49 70t-49 -70v-387z" />
<glyph unicode="&#x26;" horiz-adv-x="1214" d="M43 371v104q0 81 12.5 144.5t48 110.5t99.5 73q-60 56 -91.5 130t-31.5 179q0 151 62.5 234t160.5 112t219 29q152 0 278 -61t126 -238v-125q0 -48 -24 -93t-64.5 -80.5t-94 -59.5t-110.5 -33q31 -34 61 -72t61.5 -78t37.5 -47h20v219h340v-244q0 -46 -5 -96.5t-21 -99 t-44 -76.5h125v-303h-141q-153 0 -195 57q-135 -86 -350 -86q-120 0 -229.5 39t-179.5 128t-70 233zM383 422q5 -65 21 -114t50 -76t91 -27q114 0 133 57l-295 340v-180zM420 1108q0 -49 21.5 -99t56.5 -81q45 0 66.5 51.5t21.5 136.5q0 69 -13.5 103t-64.5 34 q-58 0 -73 -37t-15 -108z" />
<glyph unicode="'" horiz-adv-x="455" d="M104 903v555h246v-555h-246z" />
<glyph unicode="(" horiz-adv-x="606" d="M29 672q0 153 23.5 285.5t75 264.5t130.5 265h311q-243 -341 -243 -807q0 -140 28.5 -286t83.5 -280t137 -241h-313q-113 175 -173 381t-60 418z" />
<glyph unicode=")" horiz-adv-x="606" d="M31 -127q81 106 137 240.5t84.5 280.5t28.5 286q0 108 -14 212.5t-44.5 209t-77.5 202.5t-108 183h311q79 -133 130.5 -264t75.5 -264.5t24 -286.5q0 -146 -27.5 -286.5t-80.5 -270.5t-126 -242h-313z" />
<glyph unicode="*" d="M133 1147l57 168l199 -70v213h170v-213l199 78l57 -164l-211 -69l148 -181l-138 -106l-141 190l-133 -190l-141 104l141 180z" />
<glyph unicode="+" horiz-adv-x="1229" d="M94 446v279h381v381h279v-381h381v-279h-381v-380h-279v380h-381z" />
<glyph unicode="," horiz-adv-x="475" d="M35 -262l78 606h325l-192 -606h-211z" />
<glyph unicode="-" horiz-adv-x="530" d="M37 530v242h455v-242h-455z" />
<glyph unicode="." horiz-adv-x="475" d="M78 0v344h317v-344h-317z" />
<glyph unicode="/" horiz-adv-x="530" d="M4 -29l363 1516h159l-362 -1516h-160z" />
<glyph unicode="0" d="M43 369v692q0 122 39.5 207t104 132.5t139 67t153.5 19.5q127 0 221 -37t149.5 -131t55.5 -258v-692q0 -203 -113 -300.5t-317 -97.5q-201 0 -316.5 98.5t-115.5 299.5zM383 303q0 -98 90 -98q92 0 92 98v852q0 98 -92 98q-90 0 -90 -98v-852z" />
<glyph unicode="1" d="M90 1081v213q105 0 191 38.5t102 125.5h287v-1458h-340v1081h-240z" />
<glyph unicode="2" d="M33 0v180q0 158 69 285t205.5 280t193 231.5t56.5 172.5q0 104 -92 104t-92 -104v-211h-340v160q0 235 125.5 312t316.5 77q108 0 203.5 -34.5t157 -120.5t61.5 -230q0 -115 -46.5 -210t-134 -192t-164.5 -180t-126 -166q-6 -11 -19 -33t-19.5 -38.5t-10.5 -33t-4 -36.5 h524v-213h-864z" />
<glyph unicode="3" d="M47 311v250h340v-246q0 -51 19 -80.5t67 -29.5q88 0 88 110v185q0 85 -38.5 108t-123.5 23h-114v233h131q64 0 104.5 30t40.5 99v170q0 38 -23.5 64t-64.5 26q-56 0 -71 -42t-15 -115v-162h-340v209q0 187 131.5 265.5t290.5 78.5q84 0 163 -18t137 -55t95 -101t37 -152 v-92q0 -76 -14 -131t-42 -90t-66 -56t-89 -32q-2 0 -2 2v-12q107 -15 160 -73t53 -192v-161q0 -178 -120.5 -265.5t-311.5 -87.5q-422 0 -422 340z" />
<glyph unicode="4" d="M6 334v233l397 891h412v-891h113v-233h-113v-334h-317v334h-492zM231 567h267v588h-4z" />
<glyph unicode="5" d="M41 301v279h340v-263q0 -50 25 -81t67 -31q43 0 68.5 31t25.5 81v363q0 51 -24 82t-68 31q-34 0 -64 -34t-30 -69h-340v768h856v-213h-532q-2 -46 -6.5 -126.5t-8.5 -149.5h4q118 100 254 100q139 0 219 -86t80 -258v-340q0 -149 -59.5 -241.5t-157.5 -132.5t-217 -40 q-118 0 -216.5 39t-157 114t-58.5 177z" />
<glyph unicode="6" d="M45 383v752q0 114 63 195t163.5 119t215.5 38q416 0 416 -363v-182h-340v182q0 61 -18 95t-72 34q-52 0 -70 -34t-18 -95v-346q59 49 113 72.5t125 23.5q79 0 143 -32.5t100.5 -96t36.5 -153.5v-244q0 -131 -60 -216t-153 -123t-194 -38q-219 0 -335 101t-116 311z M385 268q0 -27 24 -45t68 -18q43 0 64.5 18.5t21.5 48.5v263q0 73 -80 73q-45 0 -71.5 -23t-26.5 -59v-258z" />
<glyph unicode="7" d="M18 1245v213h897v-207l-479 -1251h-362l479 1245h-535z" />
<glyph unicode="8" d="M35 348v158q0 68 30.5 123t82 88.5t114.5 42.5v8q-94 17 -160.5 84.5t-66.5 175.5v111q0 130 69.5 208t172.5 109t208 31q187 0 308.5 -80t121.5 -264v-129q0 -55 -31 -107.5t-85 -90t-113 -48.5v-8q113 -24 171 -81t58 -214v-125q0 -94 -35 -164.5t-97 -115.5 t-142.5 -67t-175.5 -22q-199 0 -314.5 96t-115.5 281zM375 283q0 -44 28 -61t76 -17q50 0 73 17t23 61v260q0 98 -102 98q-98 0 -98 -96v-262zM375 940q0 -49 25 -67.5t73 -18.5q53 0 77.5 19t24.5 75v207q0 98 -100 98q-49 0 -74.5 -26t-25.5 -70v-217z" />
<glyph unicode="9" d="M45 334v182h340v-182q0 -61 18.5 -95t71.5 -34q52 0 70 34t18 95v346q-57 -47 -111 -71.5t-126 -24.5q-122 0 -201.5 74t-79.5 208v244q0 193 122.5 285t285.5 92q143 0 244 -43.5t153.5 -134.5t52.5 -234v-751q0 -172 -130.5 -262.5t-311.5 -90.5q-416 0 -416 363z M385 924q0 -74 80 -74q45 0 71.5 23t26.5 59v258q0 63 -92 63q-86 0 -86 -67v-262z" />
<glyph unicode=":" horiz-adv-x="475" d="M78 0v344h317v-344h-317zM78 827v344h317v-344h-317z" />
<glyph unicode=";" horiz-adv-x="475" d="M35 -262l78 606h325l-192 -606h-211zM78 827v344h317v-344h-317z" />
<glyph unicode="&#x3c;" horiz-adv-x="1229" d="M154 500v172l921 389v-209l-639 -266l639 -267v-208z" />
<glyph unicode="=" horiz-adv-x="1229" d="M94 201v278h1041v-278h-1041zM94 692v279h1041v-279h-1041z" />
<glyph unicode="&#x3e;" horiz-adv-x="1229" d="M154 111v208l639 267l-639 266v209l921 -389v-172z" />
<glyph unicode="?" d="M88 946v234q0 107 55 175.5t144 100t196 31.5q379 0 379 -313v-93q0 -104 -29.5 -164t-87.5 -116t-84.5 -94.5t-29.5 -112.5v-162h-318v184q0 110 28 169.5t67 96t82.5 83t48.5 108.5v115q0 44 -13 68t-55 24q-40 0 -52.5 -24t-12.5 -68v-242h-318zM313 0v344h318v-344 h-318z" />
<glyph unicode="@" horiz-adv-x="1638" d="M90 721q0 213 102 389t277.5 276.5t382.5 100.5q132 0 257 -44t224 -124.5t157 -196.5t58 -256q0 -162 -60 -279.5t-146.5 -184.5t-171.5 -96.5t-136 -29.5q-44 0 -74 26t-34 77q-36 -44 -89.5 -73.5t-101.5 -29.5q-84 0 -160.5 50.5t-122.5 134.5t-46 182 q0 121 50 229.5t142 174t209 65.5q159 0 244 -119l18 99h188l-88 -488q-12 -54 -12 -76q0 -41 27 -41q71 0 127.5 81.5t56.5 232.5q0 120 -38 214.5t-107 156.5t-164.5 94t-212.5 32q-122 0 -221 -41.5t-170.5 -119t-109.5 -183.5t-38 -233q0 -131 41.5 -238t118.5 -182.5 t184 -114.5t230 -39q215 0 376 123h195q-209 -299 -588 -299q-209 0 -387.5 95t-282.5 267.5t-104 387.5zM641 678q0 -73 39.5 -121.5t110.5 -48.5q90 0 146 63.5t56 151.5q0 74 -42.5 119t-114.5 45q-54 0 -99 -30.5t-70.5 -78.5t-25.5 -100z" />
<glyph unicode="A" d="M23 0l247 1458h467l189 -1458h-338l-39 358h-184l-56 -358h-286zM401 580h123l-59 649h-4z" />
<glyph unicode="B" d="M45 0v1458h344q185 0 286 -18t165.5 -95t64.5 -241q0 -138 -53.5 -225t-187.5 -101v-14q101 0 154.5 -45t70 -120t16.5 -183q0 -148 -29.5 -233t-91 -124t-148.5 -49t-247 -10h-344zM385 209q66 0 103 16.5t54 48.5t20 69.5t3 105.5q0 80 -7.5 121t-26 59.5t-50 23 t-96.5 4.5v-448zM385 866q46 1 79 2.5t55 15.5t34 53t12 120q0 112 -31 152t-149 40v-383z" />
<glyph unicode="C" d="M45 397v664q0 159 57.5 253.5t152.5 133.5t218 39q136 0 230 -33.5t148 -119t54 -236.5v-160h-340v201q0 114 -92 114q-88 0 -88 -114v-820q0 -114 88 -114q92 0 92 114l2 248h338v-192q0 -404 -432 -404q-428 0 -428 426z" />
<glyph unicode="D" d="M45 0v1458h350q153 0 247.5 -18t152.5 -68.5t84 -148t26 -262.5v-521q0 -150 -40.5 -244.5t-152 -145t-317.5 -50.5h-350zM385 209q79 0 118 20.5t50.5 63t11.5 119.5v600q0 107 -9.5 153.5t-47 65t-123.5 18.5v-1040z" />
<glyph unicode="E" horiz-adv-x="758" d="M41 0v1458h704v-221h-364v-319h352v-222h-352v-475h364v-221h-704z" />
<glyph unicode="F" horiz-adv-x="758" d="M41 0v1458h704v-221h-364v-319h352v-222h-352v-696h-340z" />
<glyph unicode="G" d="M45 397v664q0 233 119 329.5t311 96.5q105 0 185.5 -22.5t134 -69.5t82.5 -123t30 -182l-2 -154h-340v203q0 114 -90 114t-90 -114v-820q0 -52 20 -83t70 -31q90 0 90 114v195h-129v221h469v-735h-198l-19 74q-54 -59 -139 -82q-63 -21 -156 -21q-117 0 -193 38 t-115.5 132.5t-39.5 255.5z" />
<glyph unicode="H" d="M45 0v1458h340v-540h180v540h340v-1458h-340v696h-180v-696h-340z" />
<glyph unicode="I" horiz-adv-x="418" d="M39 0v1458h340v-1458h-340z" />
<glyph unicode="J" d="M35 328v235h340v-211q0 -44 4.5 -74t23.5 -51.5t60 -21.5t60 21.5t23.5 51.5t4.5 74v1106h340v-1087q0 -181 -90.5 -290.5t-339.5 -109.5q-88 0 -184.5 27t-169 106.5t-72.5 223.5z" />
<glyph unicode="K" d="M45 0v1458h340v-661h4l215 661h324l-228 -643l230 -815h-336l-205 739h-4v-739h-340z" />
<glyph unicode="L" horiz-adv-x="758" d="M41 0v1458h340v-1237h369v-221h-709z" />
<glyph unicode="M" horiz-adv-x="1366" d="M43 0v1458h500l143 -1036h4l144 1036h489v-1458h-307v1245h-4l-197 -1245h-299l-197 1245h-4v-1245h-272z" />
<glyph unicode="N" horiz-adv-x="1024" d="M33 0v1458h471l217 -1061h4v1061h266v-1458h-436l-252 1219h-4v-1219h-266z" />
<glyph unicode="O" d="M45 397v664q0 233 119 329.5t311 96.5q122 0 218 -39t154 -134.5t58 -252.5v-664q0 -157 -58 -252.5t-154 -134.5t-218 -39q-430 0 -430 426zM385 319q0 -114 90 -114t90 114v820q0 114 -90 114t-90 -114v-820z" />
<glyph unicode="P" d="M45 0v1458h416q221 0 332.5 -67.5t111.5 -245.5v-266q0 -79 -31 -138.5t-88.5 -99.5t-127.5 -59t-148 -19h-125v-563h-340zM385 772h53q59 0 85.5 23t34 71t7.5 144t-7.5 144.5t-34 71.5t-85.5 23h-53v-477z" />
<glyph unicode="Q" d="M45 397v664q0 233 119 329.5t311 96.5q122 0 218 -39t154 -134.5t58 -252.5v-664q0 -275 -184 -370v-37h164v-252q-95 0 -160.5 8t-106.5 32t-61.5 69t-26.5 126q-18 -2 -55 -2q-430 0 -430 426zM385 319q0 -114 90 -114t90 114v820q0 114 -90 114t-90 -114v-820z" />
<glyph unicode="R" d="M41 0v1458h342q182 0 290 -22.5t167 -96t59 -221.5q0 -288 -260 -332v-4q131 -3 195.5 -64t64.5 -210v-305q0 -130 51 -203h-342q-49 71 -49 203v309q0 74 -36 114t-87 40h-55v-666h-340zM381 874q75 0 113.5 18.5t51.5 58t13 112.5q0 108 -33 147t-145 39v-375z" />
<glyph unicode="S" d="M45 297v270h340v-252q0 -61 20.5 -85.5t69.5 -24.5q44 0 67 25t23 85q0 110 -57.5 173.5t-192 169t-202.5 206.5t-68 258q0 365 436 365q90 0 167 -16.5t135 -54.5t90 -99.5t32 -151.5v-229h-340v205q0 112 -90 112q-52 0 -71 -27t-19 -85q0 -79 43.5 -122.5t190 -162 t216.5 -224t70 -259.5q0 -136 -48.5 -225.5t-144.5 -133t-239 -43.5q-185 0 -306.5 76t-121.5 250z" />
<glyph unicode="T" horiz-adv-x="872" d="M29 1237v221h815v-221h-238v-1237h-340v1237h-237z" />
<glyph unicode="U" d="M45 449v1009h340v-1050q0 -74 4.5 -114t23 -64.5t60.5 -24.5q44 0 63.5 25t24 64.5t4.5 113.5v1050h340v-1042q-3 -120 -26.5 -202.5t-72.5 -136t-132.5 -80t-200.5 -26.5q-192 0 -286.5 74.5t-118 173.5t-23.5 230z" />
<glyph unicode="V" d="M16 1458h365l82 -1124h4l147 1124h318l-244 -1458h-446z" />
<glyph unicode="W" horiz-adv-x="1442" d="M6 1458h348l72 -1038h4l131 1038h369l92 -1038h4l107 1038h301l-191 -1458h-397l-131 1124h-4l-121 -1124h-391z" />
<glyph unicode="X" d="M16 0l205 782l-203 676h371l117 -579h4l115 579h309l-203 -723l203 -735h-361l-116 584h-4l-127 -584h-310z" />
<glyph unicode="Y" d="M16 1458h332l125 -579h4l125 579h332l-289 -921v-537h-340v537z" />
<glyph unicode="Z" horiz-adv-x="758" d="M10 0v250l381 987h-381v221h738v-215l-398 -1022h398v-221h-738z" />
<glyph unicode="[" horiz-adv-x="606" d="M57 -127v1614h490v-230h-207v-1155h209v-229h-492z" />
<glyph unicode="\" horiz-adv-x="569" d="M-98 1487h159l607 -1516h-160z" />
<glyph unicode="]" horiz-adv-x="606" d="M57 102h209v1155h-207v230h490v-1614h-492v229z" />
<glyph unicode="^" horiz-adv-x="1229" d="M150 711l356 747h217l356 -747h-239l-226 508l-227 -508h-237z" />
<glyph unicode="_" horiz-adv-x="1024" d="M0 -61h1024v-140h-1024v140z" />
<glyph unicode="`" horiz-adv-x="418" d="M-80 1597h236l200 -288h-137z" />
<glyph unicode="a" horiz-adv-x="872" d="M45 225v174q0 104 60.5 164.5t179 119.5t169 96.5t50.5 107.5q0 86 -68 86q-67 0 -67 -86v-129h-324v108q0 164 113.5 242t277.5 78q79 0 146.5 -17t123.5 -55t88.5 -99.5t32.5 -148.5v-866h-323v137h-4q-22 -47 -50.5 -80t-72 -52t-105.5 -19q-72 0 -122.5 27.5 t-77.5 81.5t-27 130zM369 301q0 -30 17 -45.5t42 -15.5q48 0 62 32.5t14 116.5v203q-16 -11 -45 -29t-48.5 -37t-30.5 -43t-11 -55v-127z" />
<glyph unicode="b" horiz-adv-x="872" d="M45 0v1458h324v-446h4q21 81 81 127.5t148 46.5q116 0 170.5 -69.5t54.5 -190.5v-647q0 -76 -22 -143t-74.5 -108.5t-134.5 -41.5q-201 0 -223 161h-4v-147h-324zM369 332q0 -37 18.5 -58.5t48.5 -21.5q31 0 49.5 21.5t18.5 58.5v508q0 38 -18.5 59t-49.5 21 q-30 0 -48.5 -21t-18.5 -59v-508z" />
<glyph unicode="c" horiz-adv-x="872" d="M45 311v547q0 148 104 238t285 90q110 0 199 -31.5t141.5 -105t52.5 -193.5v-98h-323v133q0 82 -68 82q-67 0 -67 -82v-610q0 -82 67 -82q68 0 68 82v182h323v-172q0 -107 -49 -175t-136.5 -99t-207.5 -31q-186 0 -287.5 80t-101.5 245z" />
<glyph unicode="d" horiz-adv-x="872" d="M45 279v647q0 121 54.5 190.5t170.5 69.5q88 0 148.5 -46.5t81.5 -127.5h4v446h323v-1458h-323v147h-4q-24 -161 -224 -161q-82 0 -134.5 41.5t-74.5 108.5t-22 143zM369 332q0 -37 18.5 -58.5t48.5 -21.5q31 0 49.5 21.5t18.5 58.5v508q0 38 -18.5 59t-49.5 21 q-30 0 -48.5 -21t-18.5 -59v-508z" />
<glyph unicode="e" horiz-adv-x="872" d="M45 297v559q0 105 45.5 179.5t133 112.5t212.5 38q174 0 282.5 -77t108.5 -253v-307h-458v-238q0 -112 67 -112q68 0 68 112v152h323v-172q0 -81 -28.5 -140t-81 -95t-122 -53t-159.5 -17q-166 0 -278.5 79t-112.5 232zM369 743h135v160q0 70 -68 70q-67 0 -67 -70v-160z " />
<glyph unicode="f" horiz-adv-x="530" d="M14 958v213h72v76q0 79 53 145t156 66h207v-213q-57 0 -74.5 -17t-17.5 -57h92v-213h-92v-958h-324v958h-72z" />
<glyph unicode="g" horiz-adv-x="872" d="M45 -14v114h324v-77q0 -72 67 -72q68 0 68 72v290h-6q-8 -75 -63 -123.5t-134 -48.5q-256 0 -256 295v479q0 132 61 201.5t150 69.5q95 0 151 -41t91 -125h4v151h325v-1058q0 -150 -65 -233.5t-153.5 -112.5t-180.5 -29q-116 0 -204.5 35t-133.5 92t-45 121zM369 496 q0 -88 67 -88q68 0 68 88v335q0 89 -68 89q-67 0 -67 -89v-335z" />
<glyph unicode="h" horiz-adv-x="872" d="M45 0v1458h324v-432h4q52 160 229 160q225 0 225 -279v-907h-323v793q0 63 -12 95t-56 32q-43 0 -55 -33.5t-12 -93.5v-793h-324z" />
<glyph unicode="i" horiz-adv-x="418" d="M47 0v1171h324v-1171h-324zM96 1282v143h226v-143h-226z" />
<glyph unicode="j" horiz-adv-x="418" d="M-98 -49h43q62 0 82 24.5t20 106.5v1089h324v-1198q0 -130 -57 -182.5t-187 -52.5h-225v213zM96 1290v144h226v-144h-226z" />
<glyph unicode="k" horiz-adv-x="872" d="M45 0v1458h324v-821h4l166 534h313l-186 -524l202 -647h-329l-166 612h-4v-612h-324z" />
<glyph unicode="l" horiz-adv-x="418" d="M47 0v1458h324v-1458h-324z" />
<glyph unicode="m" horiz-adv-x="1290" d="M49 0v1171h311v-155h5q24 82 80 126t145 44q176 0 211 -170h4q14 78 74.5 124t148.5 46q213 0 213 -248v-938h-311v813q0 50 -12 78.5t-54 28.5q-40 0 -51.5 -29t-11.5 -78v-813h-312v813q0 50 -12 78.5t-53 28.5t-52.5 -29t-11.5 -78v-813h-311z" />
<glyph unicode="n" horiz-adv-x="872" d="M45 0v1171h324v-145h4q47 160 235 160q108 0 163.5 -69.5t55.5 -198.5v-918h-323v813q0 50 -12 78.5t-54 28.5q-69 0 -69 -107v-813h-324z" />
<glyph unicode="o" horiz-adv-x="872" d="M45 297v559q0 105 45.5 179.5t133 112.5t212.5 38q96 0 167.5 -21.5t122 -64t76 -104.5t25.5 -140v-559q0 -153 -112.5 -232t-278.5 -79t-278.5 79t-112.5 232zM369 281q0 -82 67 -82q68 0 68 82v610q0 82 -68 82q-67 0 -67 -82v-610z" />
<glyph unicode="p" horiz-adv-x="872" d="M45 -262v1433h324v-153h4q22 168 223 168q83 0 135 -42t74 -110t22 -147v-647q0 -116 -54.5 -185t-170.5 -69q-90 0 -149 44.5t-80 123.5h-4v-416h-324zM369 332q0 -37 18.5 -58.5t48.5 -21.5q31 0 49.5 21.5t18.5 58.5v508q0 38 -18.5 59t-49.5 21q-30 0 -48.5 -21 t-18.5 -59v-508z" />
<glyph unicode="q" horiz-adv-x="872" d="M45 240v647q0 79 22 147t74 110t135 42q201 0 224 -168h4v153h323v-1433h-323v416h-4q-21 -79 -80.5 -123.5t-149.5 -44.5q-116 0 -170.5 69t-54.5 185zM369 332q0 -37 18.5 -58.5t48.5 -21.5q31 0 49.5 21.5t18.5 58.5v508q0 38 -18.5 59t-49.5 21q-30 0 -48.5 -21 t-18.5 -59v-508z" />
<glyph unicode="r" horiz-adv-x="872" d="M45 0v1171h324v-153h6q71 168 233 168q116 0 167.5 -64.5t51.5 -165.5v-417h-323v284q0 97 -68 97q-67 0 -67 -97v-823h-324z" />
<glyph unicode="s" horiz-adv-x="872" d="M45 276v187h324v-176q0 -88 67 -88q68 0 68 88q0 91 -55.5 138.5t-170.5 108.5t-174 130t-59 196q0 167 104 246.5t275 79.5q123 0 214.5 -32t140 -98t48.5 -163v-135h-323v127q0 88 -68 88q-67 0 -67 -88q0 -65 37 -91.5t164 -98t189 -148.5t62 -207q0 -115 -46 -194 t-138 -119.5t-225 -40.5q-166 0 -266.5 70.5t-100.5 219.5z" />
<glyph unicode="t" horiz-adv-x="606" d="M16 958v213h109v211h324v-211h141v-213h-141v-639q0 -59 12.5 -82.5t64.5 -23.5h64v-213h-264q-114 0 -157.5 60t-43.5 184v714h-109z" />
<glyph unicode="u" horiz-adv-x="872" d="M45 254v917h324v-813q0 -50 12 -78t53 -28q70 0 70 106v813h323v-1171h-323v145h-4q-48 -159 -236 -159q-107 0 -163 70.5t-56 197.5z" />
<glyph unicode="v" horiz-adv-x="872" d="M23 1171h327l109 -909h4l108 909h279l-211 -1171h-393z" />
<glyph unicode="w" horiz-adv-x="1366" d="M10 1171h324l86 -905h4l102 905h359l108 -905h4l72 905h285l-168 -1171h-395l-107 934h-4l-107 -934h-383z" />
<glyph unicode="x" horiz-adv-x="872" d="M8 0l197 610l-185 561h334l101 -452h4l100 452h289l-191 -561l207 -610h-340l-112 498h-4l-113 -498h-287z" />
<glyph unicode="y" horiz-adv-x="872" d="M25 1171h327l109 -809h4l108 809h273l-262 -1234q-19 -98 -87 -148.5t-175 -50.5h-261v213h168q58 0 58 33q0 9 -8 51z" />
<glyph unicode="z" horiz-adv-x="682" d="M6 0v213l301 745h-301v213h660v-180l-314 -778h324v-213h-670z" />
<glyph unicode="{" horiz-adv-x="682" d="M57 602v170q69 4 106.5 25.5t37.5 95.5v356q0 75 46.5 129.5t111.5 81.5t114 27h152v-156h-23q-51 0 -77.5 -16.5t-34 -40.5t-7.5 -55v-363q0 -60 -45 -96.5t-104.5 -52t-108.5 -17.5v-4q105 -9 181.5 -42.5t76.5 -139.5v-365q0 -47 23 -78.5t96 -31.5h23v-156h-152 q-83 0 -177.5 64.5t-94.5 173.5v370q0 74 -37.5 95.5t-106.5 25.5z" />
<glyph unicode="|" horiz-adv-x="455" d="M88 0v1458h279v-1458h-279z" />
<glyph unicode="}" horiz-adv-x="682" d="M57 29h23q73 0 96 31.5t23 78.5v365q0 74 45 113.5t99 51.5t114 17v4q-89 5 -173.5 42.5t-84.5 123.5v363q0 50 -23 81t-96 31h-23v156h152q49 0 114 -27t111.5 -81t46.5 -130v-356q0 -73 37.5 -95t106.5 -26v-170q-69 -4 -106.5 -26t-37.5 -95v-370q0 -74 -46.5 -128.5 t-111.5 -82t-114 -27.5h-152v156z" />
<glyph unicode="~" horiz-adv-x="1229" d="M141 524q92 176 256 176q83 0 228 -65q38 -17 77 -34.5t73.5 -28.5t58.5 -11q54 0 95 39t85 109l73 -197q-58 -83 -115.5 -129.5t-140.5 -46.5q-50 0 -97 16.5t-111 50.5q-59 34 -116 53t-120 19q-104 0 -172 -147z" />
<glyph horiz-adv-x="758" d="M10 0v250l381 987h-381v221h738v-215l-398 -1022h398v-221h-738zM195 1757h92l116 -104l134 104h84l-142 -201h-151z" />
<glyph horiz-adv-x="418" d="M-45 -279q0 80 41.5 140t108.5 94.5t143 44.5h151q-108 -43 -177.5 -102t-69.5 -144q0 -60 40.5 -87t94.5 -27q97 0 182 26v-143q-113 -23 -180 -23q-169 0 -251.5 54.5t-82.5 166.5z" />
<glyph horiz-adv-x="418" d="M-96 1597h133l168 -149l190 149h121l-203 -288h-217z" />
<glyph horiz-adv-x="758" d="M-23 571v222l64 26v639h340v-508l141 56v-222l-141 -55v-508h369v-221h-709v598z" />
<glyph horiz-adv-x="524" d="M6 952v336q0 95 66 146t188 51q64 0 110 -12.5t79 -37t50 -63t17 -84.5v-336q0 -93 -73 -139.5t-183 -46.5q-108 0 -181 46.5t-73 139.5zM217 944q0 -49 43 -49q45 0 45 49v363q0 49 -45 49q-43 0 -43 -49v-363z" />
<glyph horiz-adv-x="266" d="M-246 -29l608 1516h150l-608 -1516h-150z" />
<glyph horiz-adv-x="418" d="M-90 1583h115q19 -113 194 -113q66 0 113.5 27t58.5 86h119q0 -134 -86 -203t-225 -69q-82 0 -147.5 32.5t-103.5 94t-38 145.5z" />
<glyph horiz-adv-x="682" d="M6 0v213l301 745h-301v213h660v-180l-314 -778h324v-213h-670zM150 1470h92l116 -104l134 104h83l-141 -200h-151z" />
<glyph unicode="&#xa0;" />
<glyph unicode="&#xa1;" horiz-adv-x="530" d="M106 -233v1030h318v-1030h-318zM106 881v344h318v-344h-318z" />
<glyph unicode="&#xa2;" d="M84 311v547q0 148 104 238t285 90q23 0 31 -2l47 196h188l-53 -233q85 -32 132.5 -103t47.5 -188v-98h-323v133q0 82 -68 82q-67 0 -67 -82v-610q0 -82 67 -82q68 0 68 82v182h323v-172q0 -107 -49 -175t-136.5 -99t-207.5 -31h-14l-56 -248h-192l65 278 q-192 70 -192 295z" />
<glyph unicode="&#xa3;" d="M18 643v160h91q-22 79 -33 125q-15 84 -15 131q0 115 24 196t75.5 132.5t133 75.5t195.5 24q124 0 203.5 -28t123.5 -84.5t61.5 -140t17.5 -212.5h-320v57q0 90 -17 132t-71 42q-61 0 -76.5 -46t-15.5 -124q0 -57 20 -154.5t25 -125.5h222v-160h-201q0 -281 -123 -397v-4 q88 18 127 18q49 0 141.5 -19.5t124.5 -19.5q90 0 176 39l25 -237q-28 -19 -94 -35.5t-103 -16.5q-59 0 -98.5 7.5t-110.5 25t-120 26.5t-103 9q-115 0 -240 -66l-24 209q135 84 135 303q0 73 -20 158h-136z" />
<glyph unicode="&#xa4;" d="M27 459l100 98q-37 45 -58.5 107.5t-21.5 132.5q0 72 21.5 138.5t58.5 102.5l-100 101l108 108l98 -98q39 34 107.5 55t138.5 21q66 0 131 -20t99 -52l98 98l117 -116l-97 -97q33 -33 53.5 -98.5t20.5 -138.5q0 -71 -20 -137t-56 -109l97 -96l-105 -105l-98 101 q-38 -38 -105 -60t-137 -22q-161 0 -248 78l-96 -97zM256 797q0 -65 28 -118.5t79 -85.5t114 -32q94 0 154.5 70t60.5 170q0 97 -59.5 166t-153.5 69q-64 0 -115 -31t-79.5 -87t-28.5 -121z" />
<glyph unicode="&#xa5;" d="M16 1458h332l125 -579h4l125 579h332l-182 -606h118v-160h-178l-47 -162h164v-159h-164v-371h-340v371h-164v159h164l-47 162h-178v160h119z" />
<glyph unicode="&#xa6;" horiz-adv-x="455" d="M88 0v545h279v-545h-279zM88 913v545h279v-545h-279z" />
<glyph unicode="&#xa7;" horiz-adv-x="872" d="M57 721q0 65 13 113.5t42.5 90t77.5 81.5q-71 46 -71 180q0 70 26.5 128t72.5 96t107 57.5t132 19.5q64 0 121.5 -20t101 -57.5t69 -93t25.5 -126.5h-242q0 45 -18 74q-20 30 -63 30q-38 0 -64.5 -22t-26.5 -58q0 -52 83.5 -120t165 -127t144 -139.5t62.5 -188.5 q0 -76 -36 -140.5t-99 -109.5q5 -5 18 -16t28.5 -33.5t27.5 -63.5t12 -100q0 -97 -44.5 -166.5t-122 -105t-173.5 -35.5q-155 0 -248.5 82t-93.5 248h235q3 -69 25.5 -102.5t85.5 -33.5q37 0 61.5 25.5t24.5 63.5q0 60 -52 106.5t-169 129t-177.5 157.5t-60.5 176zM283 772 q0 -38 42.5 -79t116.5 -98t90 -73q23 16 37.5 39t14.5 47q0 40 -40.5 80.5t-116 96t-93.5 75.5q-51 -33 -51 -88z" />
<glyph unicode="&#xa8;" horiz-adv-x="418" d="M-76 1331v252h230v-252h-230zM264 1331v252h230v-252h-230z" />
<glyph unicode="&#xa9;" horiz-adv-x="1638" d="M27 729q0 174 64 316.5t176.5 241.5t254 149.5t297.5 50.5t298.5 -51t253 -148t176 -241t65.5 -318q0 -173 -64.5 -316t-176 -241.5t-254 -149.5t-298.5 -51t-297.5 50.5t-255 151t-176.5 242t-63 314.5zM279 729q0 -124 42.5 -230t116 -181t173 -116.5t208.5 -41.5 q147 0 270.5 72t197 201.5t73.5 295.5q0 167 -73.5 296.5t-197 201t-270.5 71.5q-111 0 -209.5 -41t-172.5 -116.5t-116 -181t-42 -230.5zM428 735q0 94 29 174.5t84 139.5t133 92t172 33q92 0 169 -36t127 -107t66 -171h-186q-4 65 -50.5 97t-121.5 32q-87 -3 -140 -71 t-53 -179q0 -68 24.5 -126t69 -91t99.5 -33q75 0 121.5 32t50.5 97h195q-14 -98 -67.5 -171t-131 -109.5t-168.5 -36.5q-123 0 -220 57.5t-149.5 157t-52.5 219.5z" />
<glyph unicode="&#xaa;" horiz-adv-x="524" d="M6 911v105q0 61 39 97.5t117.5 72t111.5 58t33 61.5q0 53 -47 53q-43 0 -43 -53v-74h-211v65q0 68 36 110.5t94 61.5t130 19q101 0 176.5 -48t75.5 -149v-514h-211v82h-4q-23 -43 -56.5 -67.5t-90.5 -24.5q-70 0 -110 38t-40 107zM217 946q0 -9 11.5 -17.5t27.5 -8.5 q31 0 41 29.5t10 78.5v102q-46 -29 -64.5 -44t-25.5 -50v-90z" />
<glyph unicode="&#xab;" horiz-adv-x="758" d="M31 514v274l309 312v-295l-154 -154l154 -153v-295zM418 514v274l309 312v-295l-154 -154l154 -153v-295z" />
<glyph unicode="&#xac;" horiz-adv-x="1229" d="M94 692v248h1041v-608h-248v360h-793z" />
<glyph unicode="&#xad;" horiz-adv-x="1229" d="M94 446v279h1041v-279h-1041z" />
<glyph unicode="&#xae;" horiz-adv-x="1638" d="M27 727q0 174 63.5 317t176 241.5t254.5 150t298 51.5t299 -52t253.5 -148.5t175.5 -241t65 -318.5q0 -172 -65 -315.5t-176.5 -241t-253.5 -148.5t-298 -51t-297 50.5t-254.5 150t-177 241.5t-63.5 314zM279 727q0 -124 42 -229t116 -180.5t172.5 -116.5t209.5 -41 q147 0 270.5 71.5t197 201t73.5 294.5q0 167 -73.5 297t-197 202t-270.5 72q-111 0 -209 -40.5t-172 -116.5t-116.5 -183t-42.5 -231zM506 319v820h311q176 0 262 -55t86 -195q0 -111 -58.5 -160t-172.5 -55l211 -355h-191l-188 343h-70v-343h-190zM696 809h160 q57 0 84 19.5t27 70.5q0 52 -26 71t-85 19l-160 2v-182z" />
<glyph unicode="&#xaf;" horiz-adv-x="418" d="M-78 1384v152h576v-152h-576z" />
<glyph unicode="&#xb0;" horiz-adv-x="418" d="M-8 1563q0 65 27.5 117.5t83 82t135.5 29.5q79 0 135 -30t83 -82t27 -117q0 -67 -27 -119.5t-82.5 -82.5t-135.5 -30q-81 0 -136 30t-82.5 82.5t-27.5 119.5zM127 1563q0 -46 30.5 -75.5t82.5 -29.5q51 0 80.5 29.5t29.5 75.5q0 47 -29.5 75.5t-82.5 28.5 q-52 0 -81.5 -28.5t-29.5 -75.5z" />
<glyph unicode="&#xb1;" horiz-adv-x="1229" d="M94 66v278h1041v-278h-1041zM94 586v278h381v242h279v-242h381v-278h-381v-211h-279v211h-381z" />
<glyph unicode="&#xb2;" horiz-adv-x="567" d="M2 594v108q0 94 44.5 169t138.5 173.5t126.5 140t32.5 99.5q0 62 -59 62q-62 0 -62 -62v-127h-221v96q0 141 82 187.5t207 46.5q114 0 194 -52.5t80 -179.5q0 -90 -45 -153.5t-135.5 -150.5t-126.5 -144q-9 -16 -17 -29t-13 -26.5t-5 -30.5h342v-127h-563z" />
<glyph unicode="&#xb3;" horiz-adv-x="567" d="M6 780v150h221v-148q0 -65 56 -65q57 0 57 65v111q0 51 -25 64.5t-79 13.5h-74v141h84q94 0 94 78v102q0 23 -15.5 38.5t-41.5 15.5q-37 0 -46.5 -25.5t-9.5 -69.5v-96h-221v125q0 113 86 160t189 47q119 0 199.5 -47.5t80.5 -149.5v-55q0 -87 -34.5 -129t-102.5 -55h-2 v-7q70 -10 104.5 -44.5t34.5 -114.5v-97q0 -71 -37 -119.5t-100.5 -71t-142.5 -22.5q-275 0 -275 205z" />
<glyph unicode="&#xb4;" horiz-adv-x="418" d="M61 1309l201 288h236l-299 -288h-138z" />
<glyph unicode="&#xb5;" horiz-adv-x="872" d="M45 -262v1433h324v-813q0 -50 12 -78t53 -28q70 0 70 106v813h323v-1171h-323v145h-4q-33 -111 -131 -159v-248h-324z" />
<glyph unicode="&#xb6;" horiz-adv-x="1270" d="M2 1094q0 141 64 221t175 111.5t265 31.5h762v-184h-125v-1641h-258v1641h-174v-1641h-258v1110q-146 0 -246.5 41.5t-152.5 121.5t-52 188z" />
<glyph unicode="&#xb7;" horiz-adv-x="475" d="M68 586q0 48 22 87t60.5 62t87.5 23q72 0 121 -50.5t49 -121.5q0 -70 -50 -119t-120 -49t-120 49t-50 119z" />
<glyph unicode="&#xb8;" horiz-adv-x="418" d="M-37 -334q87 -26 182 -26q59 0 101.5 11.5t42.5 51.5q0 59 -117 59q-55 0 -106 -6l63 236h123l-29 -109q77 0 132 -10t92.5 -46t37.5 -106q0 -221 -344 -221q-81 0 -178 21v145z" />
<glyph unicode="&#xb9;" horiz-adv-x="567" d="M10 1241v129q69 0 124.5 23t66.5 75h186v-874h-221v647h-156z" />
<glyph unicode="&#xba;" horiz-adv-x="819" d="M117 1165q0 81 39 148t106 106t148 39q79 0 147 -39.5t106.5 -106t38.5 -147.5t-38.5 -147.5t-106.5 -106t-147 -39.5q-81 0 -148 39t-106 106t-39 148zM256 1165q0 -76 39 -118.5t115 -42.5q75 0 114 42.5t39 118.5q0 51 -17 87.5t-52 55.5t-84 19q-78 0 -116 -42 t-38 -120z" />
<glyph unicode="&#xbb;" horiz-adv-x="758" d="M31 203v295l153 153l-153 154v295l309 -312v-274zM418 203v295l153 153l-153 154v295l309 -312v-274z" />
<glyph unicode="&#xbc;" horiz-adv-x="1421" d="M45 1241v129q69 0 124.5 23t66.5 75h186v-874h-221v647h-156zM330 -29l608 1516h149l-608 -1516h-149zM776 199v141l258 534h269v-534h73v-141h-73v-199h-207v199h-320zM924 340h172v352h-4z" />
<glyph unicode="&#xbd;" horiz-adv-x="1421" d="M45 1241v129q69 0 124.5 23t66.5 75h186v-874h-221v647h-156zM268 -29l609 1516h149l-608 -1516h-150zM815 0v109q0 93 44.5 168t138.5 173.5t126.5 140t32.5 99.5q0 62 -59 62q-62 0 -62 -62v-127h-221v96q0 141 82 187.5t207 46.5q114 0 194 -52.5t80 -178.5 q0 -89 -45 -153.5t-135.5 -151.5t-126.5 -144q-9 -16 -17 -29t-13 -26.5t-5 -30.5h342v-127h-563z" />
<glyph unicode="&#xbe;" horiz-adv-x="1421" d="M45 780v150h221v-148q0 -65 56 -65q57 0 57 65v111q0 51 -25.5 64.5t-79.5 13.5h-73v141h84q94 0 94 78v102q0 23 -15.5 38.5t-41.5 15.5q-37 0 -46.5 -25.5t-9.5 -69.5v-96h-221v125q0 113 86 160t188 47q118 0 199.5 -47.5t81.5 -149.5v-55q0 -87 -34.5 -129 t-102.5 -55h-2v-7q70 -10 104.5 -44.5t34.5 -114.5v-97q0 -71 -37 -119.5t-101.5 -71t-142.5 -22.5q-274 0 -274 205zM381 -29l608 1516h150l-609 -1516h-149zM776 199v141l258 534h269v-534h73v-141h-73v-199h-207v199h-320zM924 340h172v352h-4z" />
<glyph unicode="&#xbf;" d="M88 51v92q0 106 30 166.5t87.5 116t84 93t29.5 112.5v162h318v-185q0 -137 -31.5 -183.5t-109.5 -122t-84 -150.5v-115q0 -43 13 -67.5t54 -24.5t53.5 23.5t12.5 68.5v242h317v-234q0 -107 -54.5 -175.5t-143.5 -100t-197 -31.5q-379 0 -379 313zM319 881v344h318v-344 h-318z" />
<glyph unicode="&#xc0;" d="M23 0l247 1458h467l189 -1458h-338l-39 358h-184l-56 -358h-286zM338 1761h164l139 -200h-94zM401 580h123l-59 649h-4z" />
<glyph unicode="&#xc1;" d="M23 0l247 1458h467l189 -1458h-338l-39 358h-184l-56 -358h-286zM401 580h123l-59 649h-4zM401 1561l140 200h164l-209 -200h-95z" />
<glyph unicode="&#xc2;" d="M23 0l247 1458h467l189 -1458h-338l-39 358h-184l-56 -358h-286zM287 1554l133 201h151l142 -201h-84l-133 105l-117 -105h-92zM401 580h123l-59 649h-4z" />
<glyph unicode="&#xc3;" d="M23 0l247 1458h467l189 -1458h-338l-39 358h-184l-56 -358h-286zM311 1561q0 62 34.5 103.5t88.5 41.5q30 0 80 -16q47 -17 66 -17q31 0 42 9.5t23 39.5h72q0 -61 -41 -106t-101 -45q-31 0 -83 16q-53 17 -62 17q-40 0 -53 -43h-66zM401 580h123l-59 649h-4z" />
<glyph unicode="&#xc4;" d="M23 0l247 1458h467l189 -1458h-338l-39 358h-184l-56 -358h-286zM291 1550v189h172v-189h-172zM401 580h123l-59 649h-4zM545 1550v189h172v-189h-172z" />
<glyph unicode="&#xc5;" d="M23 0l247 1458h467l189 -1458h-338l-39 358h-184l-56 -358h-286zM352 1714q0 70 44 115t126 45q55 0 94 -21t57.5 -56.5t18.5 -82.5q0 -70 -44 -115t-126 -45q-80 0 -125 44.5t-45 115.5zM401 580h123l-59 649h-4zM444 1714q0 -31 21 -51.5t57 -20.5q35 0 55.5 20.5 t20.5 51.5q0 33 -21 52.5t-57 19.5q-33 0 -54.5 -19.5t-21.5 -52.5z" />
<glyph unicode="&#xc6;" horiz-adv-x="1366" d="M14 0l365 1458h958v-221h-370v-319h360v-222h-360v-475h370v-221h-710v358h-228l-80 -358h-305zM451 580h176v657h-33z" />
<glyph unicode="&#xc7;" d="M45 397v664q0 159 57.5 253.5t152.5 133.5t218 39q136 0 230 -33.5t148 -119t54 -236.5v-160h-340v201q0 114 -92 114q-88 0 -88 -114v-820q0 -114 88 -114q92 0 92 114l2 248h338v-192q0 -404 -432 -404q-428 0 -428 426zM274 -254q55 -16 127 -16q99 0 99 43 q0 25 -22.5 32t-57.5 7q-47 0 -70 -2l43 163h80l-18 -75q82 0 132 -20.5t50 -90.5q0 -154 -240 -154q-56 0 -123 13v100z" />
<glyph unicode="&#xc8;" horiz-adv-x="758" d="M41 0v1458h704v-221h-364v-319h352v-222h-352v-475h364v-221h-704zM238 1761h163l140 -200h-95z" />
<glyph unicode="&#xc9;" horiz-adv-x="758" d="M41 0v1458h704v-221h-364v-319h352v-222h-352v-475h364v-221h-704zM281 1561l139 200h164l-209 -200h-94z" />
<glyph unicode="&#xca;" horiz-adv-x="758" d="M41 0v1458h704v-221h-364v-319h352v-222h-352v-475h364v-221h-704zM174 1550l133 201h152l141 -201h-84l-133 105l-117 -105h-92z" />
<glyph unicode="&#xcb;" horiz-adv-x="758" d="M41 0v1458h704v-221h-364v-319h352v-222h-352v-475h364v-221h-704zM168 1546v189h172v-189h-172zM422 1546v189h172v-189h-172z" />
<glyph unicode="&#xcc;" horiz-adv-x="418" d="M39 0v1458h340v-1458h-340zM53 1761h164l139 -200h-94z" />
<glyph unicode="&#xcd;" horiz-adv-x="418" d="M39 0v1458h340v-1458h-340zM96 1581l140 201h163l-209 -201h-94z" />
<glyph unicode="&#xce;" horiz-adv-x="418" d="M-4 1571l133 201h152l141 -201h-84l-133 104l-117 -104h-92zM39 0v1458h340v-1458h-340z" />
<glyph unicode="&#xcf;" horiz-adv-x="418" d="M-18 1567v188h172v-188h-172zM39 0v1458h340v-1458h-340zM236 1567v188h172v-188h-172z" />
<glyph unicode="&#xd0;" d="M-29 625v209h74v624h350q153 0 247.5 -18t152.5 -68.5t84 -148t26 -262.5v-521q0 -150 -40.5 -244.5t-152 -145t-317.5 -50.5h-350v625h-74zM385 209q79 0 118 20.5t50.5 63t11.5 119.5v600q0 107 -9.5 153.5t-47 65t-123.5 18.5v-415h111v-209h-111v-416z" />
<glyph unicode="&#xd1;" horiz-adv-x="1024" d="M33 0v1458h471l217 -1061h4v1061h266v-1458h-436l-252 1219h-4v-1219h-266zM410 1567q0 62 34.5 103.5t87.5 41.5q32 0 80 -16q53 -17 66 -17q31 0 42 9.5t23 40.5h72q0 -61 -40.5 -106.5t-100.5 -45.5q-32 0 -84 16q-47 17 -62 17q-40 0 -53 -43h-65z" />
<glyph unicode="&#xd2;" d="M45 397v664q0 233 119 329.5t311 96.5q122 0 218 -39t154 -134.5t58 -252.5v-664q0 -157 -58 -252.5t-154 -134.5t-218 -39q-430 0 -430 426zM319 1790h164l140 -201h-95zM385 319q0 -114 90 -114t90 114v820q0 114 -90 114t-90 -114v-820z" />
<glyph unicode="&#xd3;" d="M45 397v664q0 233 119 329.5t311 96.5q122 0 218 -39t154 -134.5t58 -252.5v-664q0 -157 -58 -252.5t-154 -134.5t-218 -39q-430 0 -430 426zM383 1589l139 201h164l-209 -201h-94zM385 319q0 -114 90 -114t90 114v820q0 114 -90 114t-90 -114v-820z" />
<glyph unicode="&#xd4;" d="M45 397v664q0 233 119 329.5t311 96.5q122 0 218 -39t154 -134.5t58 -252.5v-664q0 -157 -58 -252.5t-154 -134.5t-218 -39q-430 0 -430 426zM270 1559l133 200h152l141 -200h-84l-133 104l-117 -104h-92zM385 319q0 -114 90 -114t90 114v820q0 114 -90 114t-90 -114 v-820z" />
<glyph unicode="&#xd5;" d="M45 397v664q0 233 119 329.5t311 96.5q122 0 218 -39t154 -134.5t58 -252.5v-664q0 -157 -58 -252.5t-154 -134.5t-218 -39q-430 0 -430 426zM283 1589q0 63 34.5 104.5t88.5 41.5q28 0 79 -17q50 -16 66 -16q31 0 42 9t23 40h72q0 -61 -40.5 -106.5t-100.5 -45.5 q-29 0 -84 17q-50 16 -62 16q-40 0 -53 -43h-65zM385 319q0 -114 90 -114t90 114v820q0 114 -90 114t-90 -114v-820z" />
<glyph unicode="&#xd6;" d="M45 397v664q0 233 119 329.5t311 96.5q122 0 218 -39t154 -134.5t58 -252.5v-664q0 -157 -58 -252.5t-154 -134.5t-218 -39q-430 0 -430 426zM254 1585v189h172v-189h-172zM385 319q0 -114 90 -114t90 114v820q0 114 -90 114t-90 -114v-820zM508 1585v189h172v-189h-172z " />
<glyph unicode="&#xd7;" horiz-adv-x="1229" d="M94 209l324 319l-324 320l199 199l321 -322l322 322l199 -199l-324 -320l324 -319l-199 -199l-322 322l-321 -322z" />
<glyph unicode="&#xd8;" d="M45 397v664q0 233 119 329.5t311 96.5q123 0 207 -37l43 104h156l-76 -184q100 -103 100 -309v-664q0 -157 -58 -252.5t-154 -134.5t-218 -39q-133 0 -219 41l-39 -96h-151l71 180q-92 107 -92 301zM385 319q0 -114 90 -114t90 114v457h-4l-176 -444v-13zM385 711h4 l174 444q-4 98 -88 98q-90 0 -90 -114v-428z" />
<glyph unicode="&#xd9;" d="M45 449v1009h340v-1050q0 -74 4.5 -114t23 -64.5t60.5 -24.5q44 0 63.5 25t24 64.5t4.5 113.5v1050h340v-1042q-3 -120 -26.5 -202.5t-72.5 -136t-132.5 -80t-200.5 -26.5q-192 0 -286.5 74.5t-118 173.5t-23.5 230zM309 1772h164l139 -201h-94z" />
<glyph unicode="&#xda;" d="M45 449v1009h340v-1050q0 -74 4.5 -114t23 -64.5t60.5 -24.5q44 0 63.5 25t24 64.5t4.5 113.5v1050h340v-1042q-3 -120 -26.5 -202.5t-72.5 -136t-132.5 -80t-200.5 -26.5q-192 0 -286.5 74.5t-118 173.5t-23.5 230zM424 1571l139 201h164l-209 -201h-94z" />
<glyph unicode="&#xdb;" d="M45 449v1009h340v-1050q0 -74 4.5 -114t23 -64.5t60.5 -24.5q44 0 63.5 25t24 64.5t4.5 113.5v1050h340v-1042q-3 -120 -26.5 -202.5t-72.5 -136t-132.5 -80t-200.5 -26.5q-192 0 -286.5 74.5t-118 173.5t-23.5 230zM289 1556l133 201h151l142 -201h-84l-133 105 l-117 -105h-92z" />
<glyph unicode="&#xdc;" d="M45 449v1009h340v-1050q0 -74 4.5 -114t23 -64.5t60.5 -24.5q44 0 63.5 25t24 64.5t4.5 113.5v1050h340v-1042q-3 -120 -26.5 -202.5t-72.5 -136t-132.5 -80t-200.5 -26.5q-192 0 -286.5 74.5t-118 173.5t-23.5 230zM264 1563v188h172v-188h-172zM518 1563v188h172v-188 h-172z" />
<glyph unicode="&#xdd;" d="M16 1458h332l125 -579h4l125 579h332l-289 -921v-537h-340v537zM434 1561l139 200h164l-209 -200h-94z" />
<glyph unicode="&#xde;" d="M45 0v1458h340v-235h76q221 0 332.5 -67.5t111.5 -246.5v-266q0 -78 -31.5 -138.5t-88 -99.5t-127.5 -58t-148 -19h-125v-328h-340zM385 537h53q59 0 85.5 23t34 71.5t7.5 144.5t-7.5 144t-34 71t-85.5 23h-53v-477z" />
<glyph unicode="&#xdf;" horiz-adv-x="872" d="M45 0v1087q0 198 92 299t295 101q184 0 278.5 -96.5t94.5 -276.5q0 -218 -139 -268v-4q75 -26 118 -105.5t43 -183.5v-205q0 -149 -67 -255.5t-209 -106.5q-73 0 -125 16v213q12 -8 29 -8q49 0 49 125v307q0 43 -24.5 66.5t-55.5 23.5v205q57 0 57 65v211q0 64 -55 64 q-57 0 -57 -64v-1210h-324z" />
<glyph unicode="&#xe0;" horiz-adv-x="872" d="M45 225v174q0 104 60.5 164.5t179 119.5t169 96.5t50.5 107.5q0 86 -68 86q-67 0 -67 -86v-129h-324v108q0 164 113.5 242t277.5 78q79 0 146.5 -17t123.5 -55t88.5 -99.5t32.5 -148.5v-866h-323v137h-4q-22 -47 -50.5 -80t-72 -52t-105.5 -19q-72 0 -122.5 27.5 t-77.5 81.5t-27 130zM311 1489h164l139 -201h-94zM369 301q0 -30 17 -45.5t42 -15.5q48 0 62 32.5t14 116.5v203q-16 -11 -45 -29t-48.5 -37t-30.5 -43t-11 -55v-127z" />
<glyph unicode="&#xe1;" horiz-adv-x="872" d="M45 225v174q0 104 60.5 164.5t179 119.5t169 96.5t50.5 107.5q0 86 -68 86q-67 0 -67 -86v-129h-324v108q0 164 113.5 242t277.5 78q79 0 146.5 -17t123.5 -55t88.5 -99.5t32.5 -148.5v-866h-323v137h-4q-22 -47 -50.5 -80t-72 -52t-105.5 -19q-72 0 -122.5 27.5 t-77.5 81.5t-27 130zM344 1288l139 201h164l-209 -201h-94zM369 301q0 -30 17 -45.5t42 -15.5q48 0 62 32.5t14 116.5v203q-16 -11 -45 -29t-48.5 -37t-30.5 -43t-11 -55v-127z" />
<glyph unicode="&#xe2;" horiz-adv-x="872" d="M45 225v174q0 104 60.5 164.5t179 119.5t169 96.5t50.5 107.5q0 86 -68 86q-67 0 -67 -86v-129h-324v108q0 164 113.5 242t277.5 78q79 0 146.5 -17t123.5 -55t88.5 -99.5t32.5 -148.5v-866h-323v137h-4q-22 -47 -50.5 -80t-72 -52t-105.5 -19q-72 0 -122.5 27.5 t-77.5 81.5t-27 130zM227 1268l133 200h152l141 -200h-84l-133 104l-117 -104h-92zM369 301q0 -30 17 -45.5t42 -15.5q48 0 62 32.5t14 116.5v203q-16 -11 -45 -29t-48.5 -37t-30.5 -43t-11 -55v-127z" />
<glyph unicode="&#xe3;" horiz-adv-x="872" d="M45 225v174q0 104 60.5 164.5t179 119.5t169 96.5t50.5 107.5q0 86 -68 86q-67 0 -67 -86v-129h-324v108q0 164 113.5 242t277.5 78q79 0 146.5 -17t123.5 -55t88.5 -99.5t32.5 -148.5v-866h-323v137h-4q-22 -47 -50.5 -80t-72 -52t-105.5 -19q-72 0 -122.5 27.5 t-77.5 81.5t-27 130zM264 1288q0 63 34.5 104.5t88.5 41.5q27 0 80 -17q50 -16 65 -16q32 0 43 9.5t23 39.5h72q0 -61 -40.5 -106.5t-101.5 -45.5q-27 0 -84 17q-48 16 -61 16q-40 0 -53 -43h-66zM369 301q0 -30 17 -45.5t42 -15.5q48 0 62 32.5t14 116.5v203 q-16 -11 -45 -29t-48.5 -37t-30.5 -43t-11 -55v-127z" />
<glyph unicode="&#xe4;" horiz-adv-x="872" d="M45 225v174q0 104 60.5 164.5t179 119.5t169 96.5t50.5 107.5q0 86 -68 86q-67 0 -67 -86v-129h-324v108q0 164 113.5 242t277.5 78q79 0 146.5 -17t123.5 -55t88.5 -99.5t32.5 -148.5v-866h-323v137h-4q-22 -47 -50.5 -80t-72 -52t-105.5 -19q-72 0 -122.5 27.5 t-77.5 81.5t-27 130zM242 1274v188h172v-188h-172zM369 301q0 -30 17 -45.5t42 -15.5q48 0 62 32.5t14 116.5v203q-16 -11 -45 -29t-48.5 -37t-30.5 -43t-11 -55v-127zM496 1274v188h172v-188h-172z" />
<glyph unicode="&#xe5;" horiz-adv-x="872" d="M45 225v174q0 104 60.5 164.5t179 119.5t169 96.5t50.5 107.5q0 86 -68 86q-67 0 -67 -86v-129h-324v108q0 164 113.5 242t277.5 78q79 0 146.5 -17t123.5 -55t88.5 -99.5t32.5 -148.5v-866h-323v137h-4q-22 -47 -50.5 -80t-72 -52t-105.5 -19q-72 0 -122.5 27.5 t-77.5 81.5t-27 130zM283 1448q0 70 43 115t127 45q54 0 93 -21t58 -56.5t19 -82.5q0 -70 -44 -115t-126 -45t-126 44.5t-44 115.5zM369 301q0 -30 17 -45.5t42 -15.5q48 0 62 32.5t14 116.5v203q-16 -11 -45 -29t-48.5 -37t-30.5 -43t-11 -55v-127zM375 1448 q0 -31 21.5 -51.5t56.5 -20.5q34 0 54.5 20.5t20.5 51.5q0 33 -20.5 52.5t-56.5 19.5q-35 0 -55.5 -19.5t-20.5 -52.5z" />
<glyph unicode="&#xe6;" horiz-adv-x="1290" d="M31 250v141q0 106 58 163.5t172 114t168 98t54 118.5q0 88 -59 88q-70 0 -70 -88v-127h-323v121q0 147 91 227t257 80q105 0 165.5 -29.5t98.5 -83.5q40 58 107 85.5t143 27.5q177 0 272 -94t95 -279v-264h-453v-238q0 -112 61 -112q68 0 68 112v152h324v-148 q0 -104 -38.5 -178.5t-113 -112.5t-184.5 -38q-207 0 -277 106q-41 -66 -116.5 -86t-180.5 -20q-127 0 -223 59.5t-96 204.5zM354 260q0 -30 18 -45.5t42 -15.5q44 0 56.5 32.5t12.5 116.5v203q-35 -25 -63.5 -46t-47 -48.5t-18.5 -69.5v-127zM807 743h135v160q0 70 -68 70 q-67 0 -67 -70v-160z" />
<glyph unicode="&#xe7;" horiz-adv-x="872" d="M45 311v547q0 148 104 238t285 90q110 0 199 -31.5t141.5 -105t52.5 -193.5v-98h-323v133q0 82 -68 82q-67 0 -67 -82v-610q0 -82 67 -82q68 0 68 82v182h323v-172q0 -107 -49 -175t-136.5 -99t-207.5 -31q-186 0 -287.5 80t-101.5 245zM221 -238q55 -16 127 -16 q98 0 98 43q0 25 -22.5 32t-56.5 7q-48 0 -70 -2l43 164h80l-19 -76q85 0 134 -20.5t49 -90.5q0 -153 -240 -153q-61 0 -123 12v100z" />
<glyph unicode="&#xe8;" horiz-adv-x="872" d="M45 297v559q0 105 45.5 179.5t133 112.5t212.5 38q174 0 282.5 -77t108.5 -253v-307h-458v-238q0 -112 67 -112q68 0 68 112v152h323v-172q0 -81 -28.5 -140t-81 -95t-122 -53t-159.5 -17q-166 0 -278.5 79t-112.5 232zM270 1489h164l139 -201h-94zM369 743h135v160 q0 70 -68 70q-67 0 -67 -70v-160z" />
<glyph unicode="&#xe9;" horiz-adv-x="872" d="M45 297v559q0 105 45.5 179.5t133 112.5t212.5 38q174 0 282.5 -77t108.5 -253v-307h-458v-238q0 -112 67 -112q68 0 68 112v152h323v-172q0 -81 -28.5 -140t-81 -95t-122 -53t-159.5 -17q-166 0 -278.5 79t-112.5 232zM365 1288l139 201h164l-209 -201h-94zM369 743h135 v160q0 70 -68 70q-67 0 -67 -70v-160z" />
<glyph unicode="&#xea;" horiz-adv-x="872" d="M45 297v559q0 105 45.5 179.5t133 112.5t212.5 38q174 0 282.5 -77t108.5 -253v-307h-458v-238q0 -112 67 -112q68 0 68 112v152h323v-172q0 -81 -28.5 -140t-81 -95t-122 -53t-159.5 -17q-166 0 -278.5 79t-112.5 232zM217 1260l133 200h152l141 -200h-84l-133 104 l-117 -104h-92zM369 743h135v160q0 70 -68 70q-67 0 -67 -70v-160z" />
<glyph unicode="&#xeb;" horiz-adv-x="872" d="M45 297v559q0 105 45.5 179.5t133 112.5t212.5 38q174 0 282.5 -77t108.5 -253v-307h-458v-238q0 -112 67 -112q68 0 68 112v152h323v-172q0 -81 -28.5 -140t-81 -95t-122 -53t-159.5 -17q-166 0 -278.5 79t-112.5 232zM211 1286v189h172v-189h-172zM369 743h135v160 q0 70 -68 70q-67 0 -67 -70v-160zM465 1286v189h172v-189h-172z" />
<glyph unicode="&#xec;" horiz-adv-x="418" d="M37 1470h164l139 -200h-94zM47 0v1171h324v-1171h-324z" />
<glyph unicode="&#xed;" horiz-adv-x="418" d="M47 0v1171h324v-1171h-324zM111 1290l139 201h164l-209 -201h-94z" />
<glyph unicode="&#xee;" horiz-adv-x="418" d="M-6 1274l133 201h152l141 -201h-84l-133 104l-117 -104h-92zM47 0v1171h324v-1171h-324z" />
<glyph unicode="&#xef;" horiz-adv-x="418" d="M-10 1280v188h172v-188h-172zM47 0v1171h324v-1171h-324zM244 1280v188h172v-188h-172z" />
<glyph unicode="&#xf0;" horiz-adv-x="872" d="M45 307v549q0 98 40 172.5t120 116t192 41.5l-61 67l-207 -49v113l102 24l-125 117h304l73 -61l209 47v-111l-92 -20q84 -88 128.5 -145.5t71.5 -132.5t27 -179v-559q0 -154 -113 -232.5t-284 -78.5q-79 0 -149 17.5t-123.5 56.5t-83 101.5t-29.5 145.5zM369 281 q0 -82 67 -82q68 0 68 82v610q0 82 -68 82q-67 0 -67 -82v-610z" />
<glyph unicode="&#xf1;" horiz-adv-x="872" d="M45 0v1171h324v-145h4q47 160 235 160q108 0 163.5 -69.5t55.5 -198.5v-918h-323v813q0 50 -12 78.5t-54 28.5q-69 0 -69 -107v-813h-324zM285 1288q0 63 34.5 104.5t88.5 41.5q28 0 79 -17q50 -16 66 -16q31 0 42 9t23 40h72q0 -61 -40.5 -106.5t-100.5 -45.5 q-27 0 -84 17q-50 16 -62 16q-40 0 -53 -43h-65z" />
<glyph unicode="&#xf2;" horiz-adv-x="872" d="M45 297v559q0 105 45.5 179.5t133 112.5t212.5 38q96 0 167.5 -21.5t122 -64t76 -104.5t25.5 -140v-559q0 -153 -112.5 -232t-278.5 -79t-278.5 79t-112.5 232zM270 1489h164l139 -201h-94zM369 281q0 -82 67 -82q68 0 68 82v610q0 82 -68 82q-67 0 -67 -82v-610z" />
<glyph unicode="&#xf3;" horiz-adv-x="872" d="M45 297v559q0 105 45.5 179.5t133 112.5t212.5 38q96 0 167.5 -21.5t122 -64t76 -104.5t25.5 -140v-559q0 -153 -112.5 -232t-278.5 -79t-278.5 79t-112.5 232zM313 1288l140 201h163l-208 -201h-95zM369 281q0 -82 67 -82q68 0 68 82v610q0 82 -68 82q-67 0 -67 -82 v-610z" />
<glyph unicode="&#xf4;" horiz-adv-x="872" d="M45 297v559q0 105 45.5 179.5t133 112.5t212.5 38q96 0 167.5 -21.5t122 -64t76 -104.5t25.5 -140v-559q0 -153 -112.5 -232t-278.5 -79t-278.5 79t-112.5 232zM223 1264l133 200h152l141 -200h-84l-133 104l-117 -104h-92zM369 281q0 -82 67 -82q68 0 68 82v610 q0 82 -68 82q-67 0 -67 -82v-610z" />
<glyph unicode="&#xf5;" horiz-adv-x="872" d="M45 297v559q0 105 45.5 179.5t133 112.5t212.5 38q96 0 167.5 -21.5t122 -64t76 -104.5t25.5 -140v-559q0 -153 -112.5 -232t-278.5 -79t-278.5 79t-112.5 232zM233 1288q0 64 35 105t88 41q29 0 80 -17q50 -16 66 -16q31 0 42 9t23 40h72q0 -61 -40.5 -106.5 t-100.5 -45.5q-29 0 -84 17q-50 16 -62 16q-40 0 -53 -43h-66zM369 281q0 -82 67 -82q68 0 68 82v610q0 82 -68 82q-67 0 -67 -82v-610z" />
<glyph unicode="&#xf6;" horiz-adv-x="872" d="M45 297v559q0 105 45.5 179.5t133 112.5t212.5 38q96 0 167.5 -21.5t122 -64t76 -104.5t25.5 -140v-559q0 -153 -112.5 -232t-278.5 -79t-278.5 79t-112.5 232zM227 1270v188h172v-188h-172zM369 281q0 -82 67 -82q68 0 68 82v610q0 82 -68 82q-67 0 -67 -82v-610z M481 1270v188h172v-188h-172z" />
<glyph unicode="&#xf7;" horiz-adv-x="1229" d="M94 446v279h1041v-279h-1041zM426 162q0 78 57 133t133 55q51 0 94 -25.5t69 -69.5t26 -93q0 -45 -26.5 -90.5t-69.5 -73t-91 -27.5q-49 0 -94.5 26t-71.5 70.5t-26 94.5zM426 1010q0 49 26 93.5t69.5 70.5t94.5 26q39 0 72.5 -15t60 -41t41.5 -60.5t15 -73.5 q0 -72 -57.5 -130.5t-129.5 -58.5q-77 0 -134.5 55.5t-57.5 133.5z" />
<glyph unicode="&#xf8;" horiz-adv-x="872" d="M45 297v559q0 105 45.5 179.5t133 112.5t212.5 38q87 0 150 -19l37 95h159l-63 -158q108 -79 108 -248v-559q0 -153 -112.5 -232t-278.5 -79q-87 0 -157 20l-46 -112h-155l72 178q-105 81 -105 225zM369 625h4l121 313q-16 35 -58 35q-67 0 -67 -82v-266zM375 244 q11 -45 61 -45q68 0 68 82v286h-4z" />
<glyph unicode="&#xf9;" horiz-adv-x="872" d="M45 254v917h324v-813q0 -50 12 -78t53 -28q70 0 70 106v813h323v-1171h-323v145h-4q-48 -159 -236 -159q-107 0 -163 70.5t-56 197.5zM270 1485h164l139 -201h-94z" />
<glyph unicode="&#xfa;" horiz-adv-x="872" d="M45 254v917h324v-813q0 -50 12 -78t53 -28q70 0 70 106v813h323v-1171h-323v145h-4q-48 -159 -236 -159q-107 0 -163 70.5t-56 197.5zM406 1274l139 201h164l-209 -201h-94z" />
<glyph unicode="&#xfb;" horiz-adv-x="872" d="M45 254v917h324v-813q0 -50 12 -78t53 -28q70 0 70 106v813h323v-1171h-323v145h-4q-48 -159 -236 -159q-107 0 -163 70.5t-56 197.5zM225 1286l133 201h152l141 -201h-84l-133 105l-117 -105h-92z" />
<glyph unicode="&#xfc;" horiz-adv-x="872" d="M45 254v917h324v-813q0 -50 12 -78t53 -28q70 0 70 106v813h323v-1171h-323v145h-4q-48 -159 -236 -159q-107 0 -163 70.5t-56 197.5zM242 1282v188h172v-188h-172zM496 1282v188h172v-188h-172z" />
<glyph unicode="&#xfd;" horiz-adv-x="872" d="M25 1171h327l109 -809h4l108 809h273l-262 -1234q-19 -98 -87 -148.5t-175 -50.5h-261v213h168q58 0 58 33q0 9 -8 51zM434 1274l139 201h164l-209 -201h-94z" />
<glyph unicode="&#xfe;" horiz-adv-x="872" d="M45 -262v1720h324v-440h4q22 168 223 168q83 0 135 -42t74 -110t22 -147v-647q0 -116 -54.5 -185t-170.5 -69q-90 0 -149 44.5t-80 123.5h-4v-416h-324zM369 332q0 -37 18.5 -58.5t48.5 -21.5q31 0 49.5 21.5t18.5 58.5v508q0 38 -18.5 59t-49.5 21q-30 0 -48.5 -21 t-18.5 -59v-508z" />
<glyph unicode="&#xff;" horiz-adv-x="872" d="M25 1171h327l109 -809h4l108 809h273l-262 -1234q-19 -98 -87 -148.5t-175 -50.5h-261v213h168q58 0 58 33q0 9 -8 51zM254 1284v189h172v-189h-172zM508 1284v189h172v-189h-172z" />
<glyph unicode="&#x152;" horiz-adv-x="1290" d="M45 397v664q0 122 35 204.5t96.5 132t138.5 69.5t166 20q36 0 63 -3.5t60.5 -9t85.5 -11t96 -5.5h492v-221h-369v-319h357v-222h-357v-475h369v-221h-549q-43 0 -125 -12q-24 -4 -63.5 -10.5t-59.5 -6.5q-89 0 -166 21t-139 71t-96.5 131t-34.5 203zM385 319 q0 -114 92 -114t92 114v820q0 114 -92 114t-92 -114v-820z" />
<glyph unicode="&#x153;" horiz-adv-x="1290" d="M31 360v469q0 117 45 197t125 120t184 40q185 0 262 -111q49 62 110.5 86.5t147.5 24.5q158 0 256.5 -88.5t98.5 -274.5v-274h-453v-238q0 -112 61 -112q68 0 68 112v152h324v-113q0 -184 -94.5 -274t-252.5 -90q-198 0 -264 106q-73 -106 -252 -106q-93 0 -161 19.5 t-113 62.5t-68.5 115.5t-23.5 176.5zM354 281q0 -82 68 -82q61 0 61 82v610q0 36 -14.5 59t-46.5 23q-68 0 -68 -82v-610zM807 743h135v160q0 70 -68 70q-67 0 -67 -70v-160z" />
<glyph unicode="&#x178;" d="M16 1458h332l125 -579h4l125 579h332l-289 -921v-537h-340v537zM268 1571v188h172v-188h-172zM522 1571v188h172v-188h-172z" />
<glyph unicode="&#x2c6;" horiz-adv-x="418" d="M-98 1309l192 288h217l203 -288h-121l-190 149l-168 -149h-133z" />
<glyph unicode="&#x2dc;" horiz-adv-x="418" d="M-90 1337q0 91 51 150t127 59q43 0 117 -24q67 -27 98 -27q46 0 64 15t34 59h105q0 -93 -60 -157t-145 -64q-38 0 -123 26q-67 27 -92 27q-59 0 -82 -64h-94z" />
<glyph unicode="&#x2000;" horiz-adv-x="937" />
<glyph unicode="&#x2001;" horiz-adv-x="1874" />
<glyph unicode="&#x2002;" horiz-adv-x="937" />
<glyph unicode="&#x2003;" horiz-adv-x="1874" />
<glyph unicode="&#x2004;" horiz-adv-x="624" />
<glyph unicode="&#x2005;" horiz-adv-x="468" />
<glyph unicode="&#x2006;" horiz-adv-x="312" />
<glyph unicode="&#x2007;" horiz-adv-x="312" />
<glyph unicode="&#x2008;" horiz-adv-x="234" />
<glyph unicode="&#x2009;" horiz-adv-x="374" />
<glyph unicode="&#x200a;" horiz-adv-x="104" />
<glyph unicode="&#x2010;" horiz-adv-x="530" d="M37 530v242h455v-242h-455z" />
<glyph unicode="&#x2011;" horiz-adv-x="530" d="M37 530v242h455v-242h-455z" />
<glyph unicode="&#x2012;" horiz-adv-x="530" d="M37 530v242h455v-242h-455z" />
<glyph unicode="&#x2013;" horiz-adv-x="1024" d="M0 537v229h1024v-229h-1024z" />
<glyph unicode="&#x2014;" horiz-adv-x="2048" d="M0 537v229h2048v-229h-2048z" />
<glyph unicode="&#x2018;" horiz-adv-x="418" d="M25 1458h301l67 -514h-207z" />
<glyph unicode="&#x2019;" horiz-adv-x="418" d="M25 944l67 514h301l-162 -514h-206z" />
<glyph unicode="&#x201a;" horiz-adv-x="418" d="M25 -195l67 514h301l-162 -514h-206z" />
<glyph unicode="&#x201c;" horiz-adv-x="872" d="M68 1458h301l67 -514h-207zM485 1458h301l68 -514h-207z" />
<glyph unicode="&#x201d;" horiz-adv-x="872" d="M18 944l68 514h301l-162 -514h-207zM436 944l68 514h301l-162 -514h-207z" />
<glyph unicode="&#x201e;" horiz-adv-x="872" d="M18 -195l68 514h301l-162 -514h-207zM436 -195l68 514h301l-162 -514h-207z" />
<glyph unicode="&#x2022;" horiz-adv-x="1024" d="M147 729q0 99 48.5 183.5t132.5 133t184 48.5q75 0 141 -27t118 -79t79 -118t27 -141q0 -152 -106 -258t-259 -106q-98 0 -183 48t-133.5 132t-48.5 184z" />
<glyph unicode="&#x2026;" horiz-adv-x="2048" d="M182 0v344h318v-344h-318zM864 0v344h318v-344h-318zM1546 0v344h318v-344h-318z" />
<glyph unicode="&#x202f;" horiz-adv-x="374" />
<glyph unicode="&#x2039;" horiz-adv-x="418" d="M78 514v274l309 312v-295l-154 -154l154 -153v-295z" />
<glyph unicode="&#x203a;" horiz-adv-x="418" d="M31 203v295l153 153l-153 154v295l309 -312v-274z" />
<glyph unicode="&#x205f;" horiz-adv-x="468" />
<glyph unicode="&#x2122;" horiz-adv-x="2048" d="M74 1274v184h704v-184h-229v-660h-246v660h-229zM971 614v844h319l183 -489l182 489h319v-844h-221v553h-4l-186 -553h-181l-186 553h-4v-553h-221z" />
<glyph unicode="&#x25fc;" horiz-adv-x="1170" d="M0 0v1170h1170v-1170h-1170z" />
<glyph unicode="&#xfb01;" horiz-adv-x="948" d="M14 958v213h72v76q0 79 53 145t156 66h207v-213q-57 0 -74.5 -17t-17.5 -57h92v-213h-92v-958h-324v958h-72zM571 0v1171h324v-1171h-324zM571 1251v207h324v-207h-324z" />
</font>
</defs>
</svg>
